<svg xmlns="http://www.w3.org/2000/svg" viewBox="0 0 1000 1280" font-family="'Segoe UI', Arial, sans-serif">
  <defs>
    <linearGradient id="bg" x1="0" y1="0" x2="0" y2="1">
      <stop offset="0%" stop-color="#0d1117"/>
      <stop offset="100%" stop-color="#161b22"/>
    </linearGradient>
    <filter id="shadow">
      <feDropShadow dx="0" dy="3" stdDeviation="4" flood-color="#000" flood-opacity="0.35"/>
    </filter>
  </defs>

  <!-- Background -->
  <rect width="1000" height="1280" fill="url(#bg)" rx="16"/>

  <!-- Title -->
  <text x="500" y="42" text-anchor="middle" fill="#f8fafc" font-size="24" font-weight="700" letter-spacing="0.5">SQuery - SQL Translation Pipeline</text>
  <text x="500" y="65" text-anchor="middle" fill="#64748b" font-size="12">Each layer transforms the data one step closer to executable SQL</text>

  <!-- ============================================= -->
  <!-- LEGEND -->
  <!-- ============================================= -->
  <rect x="560" y="78" width="400" height="56" rx="10" fill="#1e293b" stroke="#334155" stroke-width="1"/>
  <text x="578" y="95" fill="#94a3b8" font-size="9" font-weight="700">COLOR LEGEND</text>
  <!-- Row 1 -->
  <circle cx="578" cy="110" r="4" fill="#f97316"/>  <text x="588" y="114" fill="#94a3b8" font-size="9">JOIN</text>
  <circle cx="638" cy="110" r="4" fill="#a78bfa"/>  <text x="648" y="114" fill="#94a3b8" font-size="9">SELECT</text>
  <circle cx="708" cy="110" r="4" fill="#f43f5e"/>  <text x="718" y="114" fill="#94a3b8" font-size="9">WHERE</text>
  <circle cx="778" cy="110" r="4" fill="#38bdf8"/>  <text x="788" y="114" fill="#94a3b8" font-size="9">ORDER BY</text>
  <circle cx="858" cy="110" r="4" fill="#06b6d4"/>  <text x="868" y="114" fill="#94a3b8" font-size="9">Entity</text>
  <!-- Row 2 -->
  <circle cx="578" cy="126" r="4" fill="#eab308"/>  <text x="588" y="130" fill="#94a3b8" font-size="9">System-injected</text>
  <circle cx="688" cy="126" r="4" fill="#10b981"/>  <text x="698" y="130" fill="#94a3b8" font-size="9">Valid / Output</text>

  <!-- ============================================= -->
  <!-- LAYER 0 - RAW URL -->
  <!-- ============================================= -->
  <rect x="40" y="148" width="920" height="72" rx="14" fill="#1e293b" stroke="#64748b" stroke-width="1.5" filter="url(#shadow)"/>
  <!-- Badge -->
  <rect x="56" y="158" width="62" height="22" rx="6" fill="#64748b"/>
  <text x="87" y="174" text-anchor="middle" fill="#fff" font-size="11" font-weight="700">INPUT</text>
  <text x="130" y="174" fill="#94a3b8" font-size="12" font-weight="500">Raw SQuery URL</text>
  <!-- URL content - colors match clause semantics -->
  <text x="60" y="203" fill="#cbd5e1" font-size="10.5" font-family="'Cascadia Code', 'Fira Code', monospace">...?squery=<tspan fill="#f97316">join+Role+r</tspan>+<tspan fill="#a78bfa">select+Id,+r.DisplayName</tspan>+<tspan fill="#f43f5e">where+(OwnerType=2015)</tspan>+<tspan fill="#38bdf8">order+by+Id+desc</tspan></text>

  <!-- Arrow -->
  <rect x="492" y="222" width="16" height="22" rx="3" fill="#334155"/>
  <polygon points="492,240 508,240 500,250" fill="#475569"/>

  <!-- ============================================= -->
  <!-- LAYER 1 - LEXER -->
  <!-- ============================================= -->
  <rect x="40" y="256" width="920" height="130" rx="14" fill="#1a1520" stroke="#64748b" stroke-width="1.5" filter="url(#shadow)"/>
  <!-- Badge -->
  <rect x="56" y="266" width="90" height="22" rx="6" fill="#64748b"/>
  <text x="101" y="282" text-anchor="middle" fill="#fff" font-size="11" font-weight="700">1 - LEXER</text>
  <text x="158" y="282" fill="#94a3b8" font-size="12" font-weight="500">Splits text into typed tokens</text>

  <!-- Token boxes row 1 - JOIN clause tokens (orange) -->
  <rect x="60"  y="300" width="56" height="26" rx="6" fill="#f9731620" stroke="#f97316" stroke-width="1"/>
  <text x="88"  y="318" text-anchor="middle" fill="#fdba74" font-size="10" font-weight="600">KEYWORD</text>
  <rect x="124" y="300" width="36" height="26" rx="6" fill="#f97316" opacity="0.85"/>
  <text x="142" y="318" text-anchor="middle" fill="#fff" font-size="10" font-family="'Cascadia Code', monospace" font-weight="600">join</text>

  <rect x="172" y="300" width="42" height="26" rx="6" fill="#f9731620" stroke="#f97316" stroke-width="1"/>
  <text x="193" y="318" text-anchor="middle" fill="#fdba74" font-size="10" font-weight="600">IDENT</text>
  <rect x="222" y="300" width="38" height="26" rx="6" fill="#f97316" opacity="0.85"/>
  <text x="241" y="318" text-anchor="middle" fill="#fff" font-size="10" font-family="'Cascadia Code', monospace" font-weight="600">Role</text>

  <rect x="272" y="300" width="42" height="26" rx="6" fill="#f9731620" stroke="#f97316" stroke-width="1"/>
  <text x="293" y="318" text-anchor="middle" fill="#fdba74" font-size="10" font-weight="600">IDENT</text>
  <rect x="322" y="300" width="22" height="26" rx="6" fill="#f97316" opacity="0.85"/>
  <text x="333" y="318" text-anchor="middle" fill="#fff" font-size="10" font-family="'Cascadia Code', monospace" font-weight="600">r</text>

  <!-- SELECT clause tokens (violet) -->
  <rect x="356" y="300" width="56" height="26" rx="6" fill="#a78bfa20" stroke="#a78bfa" stroke-width="1"/>
  <text x="384" y="318" text-anchor="middle" fill="#c4b5fd" font-size="10" font-weight="600">KEYWORD</text>
  <rect x="420" y="300" width="50" height="26" rx="6" fill="#a78bfa" opacity="0.85"/>
  <text x="445" y="318" text-anchor="middle" fill="#fff" font-size="10" font-family="'Cascadia Code', monospace" font-weight="600">select</text>

  <rect x="482" y="300" width="42" height="26" rx="6" fill="#a78bfa20" stroke="#a78bfa" stroke-width="1"/>
  <text x="503" y="318" text-anchor="middle" fill="#c4b5fd" font-size="10" font-weight="600">IDENT</text>
  <rect x="532" y="300" width="22" height="26" rx="6" fill="#a78bfa" opacity="0.85"/>
  <text x="543" y="318" text-anchor="middle" fill="#fff" font-size="10" font-family="'Cascadia Code', monospace" font-weight="600">Id</text>

  <rect x="566" y="300" width="16" height="26" rx="6" fill="#a78bfa" opacity="0.4"/>
  <text x="574" y="318" text-anchor="middle" fill="#c4b5fd" font-size="11" font-family="'Cascadia Code', monospace" font-weight="700">,</text>

  <rect x="594" y="300" width="42" height="26" rx="6" fill="#a78bfa20" stroke="#a78bfa" stroke-width="1"/>
  <text x="615" y="318" text-anchor="middle" fill="#c4b5fd" font-size="10" font-weight="600">IDENT</text>
  <rect x="644" y="300" width="90" height="26" rx="6" fill="#a78bfa" opacity="0.85"/>
  <text x="689" y="318" text-anchor="middle" fill="#fff" font-size="10" font-family="'Cascadia Code', monospace" font-weight="600">r.DisplayName</text>

  <!-- Token boxes row 2 - WHERE clause tokens (rose) -->
  <rect x="60"  y="338" width="56" height="26" rx="6" fill="#f43f5e20" stroke="#f43f5e" stroke-width="1"/>
  <text x="88"  y="356" text-anchor="middle" fill="#fda4af" font-size="10" font-weight="600">KEYWORD</text>
  <rect x="124" y="338" width="44" height="26" rx="6" fill="#f43f5e" opacity="0.85"/>
  <text x="146" y="356" text-anchor="middle" fill="#fff" font-size="10" font-family="'Cascadia Code', monospace" font-weight="600">where</text>

  <rect x="180" y="338" width="16" height="26" rx="6" fill="#f43f5e" opacity="0.4"/>
  <text x="188" y="356" text-anchor="middle" fill="#fda4af" font-size="12" font-family="'Cascadia Code', monospace" font-weight="700">(</text>

  <rect x="208" y="338" width="42" height="26" rx="6" fill="#f43f5e20" stroke="#f43f5e" stroke-width="1"/>
  <text x="229" y="356" text-anchor="middle" fill="#fda4af" font-size="10" font-weight="600">IDENT</text>
  <rect x="258" y="338" width="75" height="26" rx="6" fill="#f43f5e" opacity="0.85"/>
  <text x="295" y="356" text-anchor="middle" fill="#fff" font-size="10" font-family="'Cascadia Code', monospace" font-weight="600">OwnerType</text>

  <rect x="345" y="338" width="16" height="26" rx="6" fill="#f43f5e" opacity="0.6"/>
  <text x="353" y="356" text-anchor="middle" fill="#fda4af" font-size="12" font-family="'Cascadia Code', monospace" font-weight="700">=</text>

  <rect x="373" y="338" width="42" height="26" rx="6" fill="#f43f5e20" stroke="#f43f5e" stroke-width="1"/>
  <text x="394" y="356" text-anchor="middle" fill="#fda4af" font-size="10" font-weight="600">VALUE</text>
  <rect x="423" y="338" width="38" height="26" rx="6" fill="#f43f5e" opacity="0.85"/>
  <text x="442" y="356" text-anchor="middle" fill="#fff" font-size="10" font-family="'Cascadia Code', monospace" font-weight="600">2015</text>

  <rect x="473" y="338" width="16" height="26" rx="6" fill="#f43f5e" opacity="0.4"/>
  <text x="481" y="356" text-anchor="middle" fill="#fda4af" font-size="12" font-family="'Cascadia Code', monospace" font-weight="700">)</text>

  <!-- ORDER BY clause tokens (sky blue) -->
  <rect x="510" y="338" width="56" height="26" rx="6" fill="#38bdf820" stroke="#38bdf8" stroke-width="1"/>
  <text x="538" y="356" text-anchor="middle" fill="#7dd3fc" font-size="10" font-weight="600">KEYWORD</text>
  <rect x="574" y="338" width="56" height="26" rx="6" fill="#38bdf8" opacity="0.85"/>
  <text x="602" y="356" text-anchor="middle" fill="#fff" font-size="10" font-family="'Cascadia Code', monospace" font-weight="600">order by</text>

  <rect x="642" y="338" width="42" height="26" rx="6" fill="#38bdf820" stroke="#38bdf8" stroke-width="1"/>
  <text x="663" y="356" text-anchor="middle" fill="#7dd3fc" font-size="10" font-weight="600">IDENT</text>
  <rect x="692" y="338" width="22" height="26" rx="6" fill="#38bdf8" opacity="0.85"/>
  <text x="703" y="356" text-anchor="middle" fill="#fff" font-size="10" font-family="'Cascadia Code', monospace" font-weight="600">Id</text>

  <rect x="726" y="338" width="42" height="26" rx="6" fill="#38bdf820" stroke="#38bdf8" stroke-width="1"/>
  <text x="747" y="356" text-anchor="middle" fill="#7dd3fc" font-size="10" font-weight="600">IDENT</text>
  <rect x="776" y="338" width="34" height="26" rx="6" fill="#38bdf8" opacity="0.85"/>
  <text x="793" y="356" text-anchor="middle" fill="#fff" font-size="10" font-family="'Cascadia Code', monospace" font-weight="600">desc</text>

  <!-- Arrow -->
  <rect x="492" y="388" width="16" height="22" rx="3" fill="#334155"/>
  <polygon points="492,406 508,406 500,416" fill="#475569"/>

  <!-- ============================================= -->
  <!-- LAYER 2 - PARSER -->
  <!-- ============================================= -->
  <rect x="40" y="422" width="920" height="168" rx="14" fill="#0f1923" stroke="#64748b" stroke-width="1.5" filter="url(#shadow)"/>
  <!-- Badge -->
  <rect x="56" y="432" width="100" height="22" rx="6" fill="#64748b"/>
  <text x="106" y="448" text-anchor="middle" fill="#fff" font-size="11" font-weight="700">2 - PARSER</text>
  <text x="168" y="448" fill="#94a3b8" font-size="12" font-weight="500">Groups tokens into a structured tree (AST)</text>

  <!-- AST blocks - colors match clause semantics -->
  <!-- Joins block (orange) -->
  <rect x="60" y="464" width="200" height="56" rx="10" fill="#f9731615" stroke="#f97316" stroke-width="1"/>
  <text x="78" y="482" fill="#fdba74" font-size="10" font-weight="700">JOINS</text>
  <text x="78" y="500" fill="#fed7aa" font-size="10" font-family="'Cascadia Code', monospace">Role - alias "r"</text>
  <text x="78" y="514" fill="#fed7aa" font-size="10" font-family="'Cascadia Code', monospace">r.Policy - alias "rp"</text>

  <!-- Select block (violet) -->
  <rect x="275" y="464" width="210" height="56" rx="10" fill="#a78bfa15" stroke="#a78bfa" stroke-width="1"/>
  <text x="293" y="482" fill="#c4b5fd" font-size="10" font-weight="700">SELECT</text>
  <text x="293" y="500" fill="#ddd6fe" font-size="10" font-family="'Cascadia Code', monospace">[ Id, r.DisplayName ]</text>

  <!-- Where block (rose) -->
  <rect x="500" y="464" width="220" height="56" rx="10" fill="#f43f5e15" stroke="#f43f5e" stroke-width="1"/>
  <text x="518" y="482" fill="#fda4af" font-size="10" font-weight="700">WHERE</text>
  <text x="518" y="500" fill="#fecdd3" font-size="10" font-family="'Cascadia Code', monospace">compare(OwnerType = 2015)</text>

  <!-- OrderBy block (sky blue) -->
  <rect x="735" y="464" width="150" height="56" rx="10" fill="#38bdf815" stroke="#38bdf8" stroke-width="1"/>
  <text x="753" y="482" fill="#7dd3fc" font-size="10" font-weight="700">ORDER BY</text>
  <text x="753" y="500" fill="#bae6fd" font-size="10" font-family="'Cascadia Code', monospace">Id DESC</text>

  <!-- Root entity box (teal) -->
  <rect x="60" y="532" width="825" height="28" rx="8" fill="#06b6d418" stroke="#06b6d4" stroke-width="1" stroke-dasharray="4,3"/>
  <text x="78" y="551" fill="#67e8f9" font-size="10" font-weight="600">ROOT ENTITY</text>
  <text x="190" y="551" fill="#a5f3fc" font-size="10" font-family="'Cascadia Code', monospace">AssignedSingleRole   (from QueryRootEntityType= or URL path)</text>

  <!-- Top box -->
  <rect x="60" y="568" width="120" height="14" rx="4" fill="#64748b18"/>
  <text x="78" y="579" fill="#94a3b8" font-size="9">TOP: none specified</text>

  <!-- Arrow -->
  <rect x="492" y="592" width="16" height="22" rx="3" fill="#334155"/>
  <polygon points="492,610 508,610 500,620" fill="#475569"/>

  <!-- ============================================= -->
  <!-- LAYER 3 - VALIDATOR -->
  <!-- ============================================= -->
  <rect x="40" y="626" width="920" height="110" rx="14" fill="#0f1a14" stroke="#64748b" stroke-width="1.5" filter="url(#shadow)"/>
  <!-- Badge -->
  <rect x="56" y="636" width="120" height="22" rx="6" fill="#64748b"/>
  <text x="116" y="652" text-anchor="middle" fill="#fff" font-size="11" font-weight="700">3 - VALIDATOR</text>
  <text x="188" y="652" fill="#94a3b8" font-size="12" font-weight="500">Checks the AST against config files</text>

  <!-- Check items (green = valid) -->
  <rect x="60" y="668" width="260" height="30" rx="8" fill="#10b98115" stroke="#10b981" stroke-width="1"/>
  <text x="78" y="688" fill="#6ee7b7" font-size="11">ok  AssignedSingleRole - table exists</text>

  <rect x="332" y="668" width="260" height="30" rx="8" fill="#10b98115" stroke="#10b981" stroke-width="1"/>
  <text x="350" y="688" fill="#6ee7b7" font-size="11">ok  Role nav prop is defined</text>

  <rect x="604" y="668" width="260" height="30" rx="8" fill="#10b98115" stroke="#10b981" stroke-width="1"/>
  <text x="622" y="688" fill="#6ee7b7" font-size="11">ok  All fields and aliases valid</text>

  <!-- Warning/error example (amber = system concern) -->
  <rect x="60" y="706" width="520" height="22" rx="6" fill="#eab30815" stroke="#eab308" stroke-width="1" stroke-dasharray="3,3"/>
  <text x="78" y="721" fill="#fde68a" font-size="10">!  Unknown field - warning with fix hint  |  x  Undeclared alias - error, abort</text>

  <!-- Arrow -->
  <rect x="492" y="738" width="16" height="22" rx="3" fill="#334155"/>
  <polygon points="492,756 508,756 500,766" fill="#475569"/>

  <!-- ============================================= -->
  <!-- LAYER 4 - TRANSFORMER -->
  <!-- ============================================= -->
  <rect x="40" y="772" width="920" height="155" rx="14" fill="#0a1a14" stroke="#64748b" stroke-width="1.5" filter="url(#shadow)"/>
  <!-- Badge -->
  <rect x="56" y="782" width="140" height="22" rx="6" fill="#64748b"/>
  <text x="126" y="798" text-anchor="middle" fill="#fff" font-size="11" font-weight="700">4 - TRANSFORMER</text>
  <text x="208" y="798" fill="#94a3b8" font-size="12" font-weight="500">Resolves SQuery names to SQL names</text>

  <!-- FROM mapping (teal) -->
  <rect x="60" y="814" width="170" height="26" rx="7" fill="#06b6d420" stroke="#06b6d4" stroke-width="1"/>
  <text x="145" y="832" text-anchor="middle" fill="#a5f3fc" font-size="10" font-family="'Cascadia Code', monospace">AssignedSingleRole</text>
  <text x="245" y="832" fill="#475569" font-size="14" font-weight="700">-></text>
  <rect x="272" y="814" width="260" height="26" rx="7" fill="#06b6d415" stroke="#06b6d4" stroke-width="1" stroke-dasharray="3,2"/>
  <text x="402" y="832" text-anchor="middle" fill="#67e8f9" font-size="10" font-family="'Cascadia Code', monospace">FROM [dbo].[UP_AssignedSingleRoles] asr</text>

  <!-- JOIN mapping (orange) -->
  <rect x="60" y="848" width="170" height="26" rx="7" fill="#f9731620" stroke="#f97316" stroke-width="1"/>
  <text x="145" y="866" text-anchor="middle" fill="#fed7aa" font-size="10" font-family="'Cascadia Code', monospace">join Role r</text>
  <text x="245" y="866" fill="#475569" font-size="14" font-weight="700">-></text>
  <rect x="272" y="848" width="430" height="26" rx="7" fill="#f9731615" stroke="#f97316" stroke-width="1" stroke-dasharray="3,2"/>
  <text x="487" y="866" text-anchor="middle" fill="#fdba74" font-size="10" font-family="'Cascadia Code', monospace">LEFT JOIN [dbo].[UP_SingleRoles] r ON asr.Role_Id = r.Id</text>

  <!-- Column rename (violet) -->
  <rect x="60" y="882" width="170" height="26" rx="7" fill="#a78bfa20" stroke="#a78bfa" stroke-width="1"/>
  <text x="145" y="900" text-anchor="middle" fill="#ddd6fe" font-size="10" font-family="'Cascadia Code', monospace">r.DisplayName</text>
  <text x="245" y="900" fill="#475569" font-size="14" font-weight="700">-></text>
  <rect x="272" y="882" width="160" height="26" rx="7" fill="#a78bfa15" stroke="#a78bfa" stroke-width="1" stroke-dasharray="3,2"/>
  <text x="352" y="900" text-anchor="middle" fill="#c4b5fd" font-size="10" font-family="'Cascadia Code', monospace">r.DisplayName_L1</text>

  <!-- System filter injected (amber) -->
  <rect x="540" y="882" width="340" height="26" rx="7" fill="#eab30818" stroke="#eab308" stroke-width="1" stroke-dasharray="3,3"/>
  <text x="558" y="900" fill="#fde68a" font-size="10">+ injected: ValidTo > CURRENT_TIMESTAMP, Type = N</text>

  <!-- Arrow -->
  <rect x="492" y="929" width="16" height="22" rx="3" fill="#334155"/>
  <polygon points="492,947 508,947 500,957" fill="#475569"/>

  <!-- ============================================= -->
  <!-- LAYER 5 - SQL BUILDER -->
  <!-- ============================================= -->
  <rect x="40" y="963" width="920" height="80" rx="14" fill="#0d1424" stroke="#64748b" stroke-width="1.5" filter="url(#shadow)"/>
  <!-- Badge -->
  <rect x="56" y="973" width="138" height="22" rx="6" fill="#64748b"/>
  <text x="125" y="989" text-anchor="middle" fill="#fff" font-size="11" font-weight="700">5 - SQL BUILDER</text>
  <text x="206" y="989" fill="#94a3b8" font-size="12" font-weight="500">Assembles all parts into the final query</text>

  <!-- Assembly blocks - colored by clause -->
  <rect x="60"  y="1005" width="70"  height="24" rx="6" fill="#a78bfa" opacity="0.8"/>
  <text x="95"  y="1022" text-anchor="middle" fill="#fff" font-size="10" font-weight="600">SELECT</text>
  <text x="139" y="1022" fill="#475569" font-size="12">+</text>
  <rect x="148" y="1005" width="58" height="24" rx="6" fill="#06b6d4" opacity="0.8"/>
  <text x="177" y="1022" text-anchor="middle" fill="#fff" font-size="10" font-weight="600">FROM</text>
  <text x="215" y="1022" fill="#475569" font-size="12">+</text>
  <rect x="224" y="1005" width="100" height="24" rx="6" fill="#f97316" opacity="0.8"/>
  <text x="274" y="1022" text-anchor="middle" fill="#fff" font-size="10" font-weight="600">LEFT JOINs</text>
  <text x="333" y="1022" fill="#475569" font-size="12">+</text>
  <rect x="342" y="1005" width="68" height="24" rx="6" fill="#f43f5e" opacity="0.8"/>
  <text x="376" y="1022" text-anchor="middle" fill="#fff" font-size="10" font-weight="600">WHERE</text>
  <text x="419" y="1022" fill="#475569" font-size="12">+</text>
  <rect x="428" y="1005" width="90" height="24" rx="6" fill="#38bdf8" opacity="0.8"/>
  <text x="473" y="1022" text-anchor="middle" fill="#fff" font-size="10" font-weight="600">ORDER BY</text>
  <text x="533" y="1022" fill="#475569" font-size="14">-></text>
  <rect x="556" y="1005" width="70" height="24" rx="6" fill="#10b981" opacity="0.9"/>
  <text x="591" y="1022" text-anchor="middle" fill="#fff" font-size="10" font-weight="700">final SQL</text>

  <!-- Arrow -->
  <rect x="492" y="1045" width="16" height="22" rx="3" fill="#334155"/>
  <polygon points="492,1063 508,1063 500,1073" fill="#475569"/>

  <!-- ============================================= -->
  <!-- LAYER 6 - OUTPUT -->
  <!-- ============================================= -->
  <rect x="40" y="1079" width="920" height="130" rx="14" fill="#0a1a14" stroke="#10b981" stroke-width="2" filter="url(#shadow)"/>
  <!-- Badge -->
  <rect x="56" y="1089" width="78" height="22" rx="6" fill="#10b981"/>
  <text x="95" y="1105" text-anchor="middle" fill="#fff" font-size="11" font-weight="700">OUTPUT</text>
  <text x="146" y="1105" fill="#6ee7b7" font-size="12" font-weight="500">Parameterized SQL ready to execute</text>

  <!-- SQL output - colors match clause semantics -->
  <text x="68" y="1132" fill="#d1fae5" font-size="12" font-family="'Cascadia Code', 'Fira Code', monospace"><tspan fill="#a78bfa" font-weight="600">SELECT</tspan> asr.Id, r.DisplayName_L1</text>
  <text x="68" y="1152" fill="#d1fae5" font-size="12" font-family="'Cascadia Code', 'Fira Code', monospace"><tspan fill="#06b6d4" font-weight="600">FROM</tspan> [dbo].[UP_AssignedSingleRoles] asr</text>
  <text x="68" y="1172" fill="#d1fae5" font-size="12" font-family="'Cascadia Code', 'Fira Code', monospace"><tspan fill="#f97316" font-weight="600">LEFT JOIN</tspan> [dbo].[UP_SingleRoles] r <tspan fill="#64748b">ON</tspan> asr.Role_Id = r.Id</text>
  <text x="68" y="1192" fill="#d1fae5" font-size="12" font-family="'Cascadia Code', 'Fira Code', monospace"><tspan fill="#f43f5e" font-weight="600">WHERE</tspan> asr.ValidTo > CURRENT_TIMESTAMP <tspan fill="#64748b">AND</tspan> (asr.OwnerType = 2015) <tspan fill="#38bdf8" font-weight="600">ORDER BY</tspan> asr.Id DESC</text>

  <!-- ============================================= -->
  <!-- CONFIG floating panel (right side) -->
  <!-- ============================================= -->
  <rect x="796" y="640" width="155" height="82" rx="10" fill="#1e293b" stroke="#475569" stroke-width="1" filter="url(#shadow)" opacity="0.9"/>
  <text x="873" y="657" text-anchor="middle" fill="#94a3b8" font-size="10" font-weight="700">CONFIG FILES</text>
  <text x="810" y="674" fill="#64748b" font-size="9">squery-schema.json</text>
  <text x="810" y="688" fill="#64748b" font-size="9">sql-schema.json</text>
  <text x="810" y="702" fill="#64748b" font-size="9">correlation.json</text>
  <text x="810" y="716" fill="#64748b" font-size="9">resource-columns.json</text>

  <!-- Dotted line from config to validator / transformer -->
  <line x1="796" y1="680" x2="775" y2="685" stroke="#33415580" stroke-width="1" stroke-dasharray="3,3"/>
  <line x1="810" y1="722" x2="810" y2="790" stroke="#33415580" stroke-width="1" stroke-dasharray="3,3"/>

  <!-- ============================================= -->
  <!-- Footer -->
  <!-- ============================================= -->
  <text x="500" y="1245" text-anchor="middle" fill="#334155" font-size="10">SQuery-SQL-Translator - github.com/Ariovis</text>
</svg>
