<svg xmlns="http://www.w3.org/2000/svg" viewBox="0 0 1000 1200" font-family="'Segoe UI', Arial, sans-serif">
  <defs>
    <linearGradient id="bg" x1="0" y1="0" x2="0" y2="1">
      <stop offset="0%" stop-color="#0d1117"/>
      <stop offset="100%" stop-color="#161b22"/>
    </linearGradient>
    <filter id="shadow">
      <feDropShadow dx="0" dy="3" stdDeviation="4" flood-color="#000" flood-opacity="0.35"/>
    </filter>
    <filter id="glow">
      <feGaussianBlur stdDeviation="2.5" result="blur"/>
      <feMerge><feMergeNode in="blur"/><feMergeNode in="SourceGraphic"/></feMerge>
    </filter>
  </defs>

  <!-- Background -->
  <rect width="1000" height="1200" fill="url(#bg)" rx="16"/>

  <!-- Title -->
  <text x="500" y="42" text-anchor="middle" fill="#f8fafc" font-size="24" font-weight="700" letter-spacing="0.5">SQuery → SQL Translation Pipeline</text>
  <text x="500" y="65" text-anchor="middle" fill="#64748b" font-size="12">Each layer transforms the data one step closer to executable SQL</text>

  <!-- ============================================= -->
  <!-- LAYER 0 — RAW URL -->
  <!-- ============================================= -->
  <rect x="40" y="88" width="920" height="72" rx="14" fill="#1e293b" stroke="#f97316" stroke-width="1.5" filter="url(#shadow)"/>
  <!-- Badge -->
  <rect x="56" y="98" width="62" height="22" rx="6" fill="#f97316"/>
  <text x="87" y="114" text-anchor="middle" fill="#fff" font-size="11" font-weight="700">INPUT</text>
  <text x="130" y="114" fill="#94a3b8" font-size="12" font-weight="500">Raw SQuery URL</text>
  <!-- URL content -->
  <text x="60" y="143" fill="#cbd5e1" font-size="10.5" font-family="'Cascadia Code', 'Fira Code', monospace">...?squery=<tspan fill="#f97316">join+Role+r</tspan>+<tspan fill="#a78bfa">select+Id,+r.DisplayName</tspan>+<tspan fill="#f43f5e">where+(OwnerType=2015)</tspan>+<tspan fill="#38bdf8">order+by+Id+desc</tspan></text>

  <!-- Arrow -->
  <rect x="492" y="162" width="16" height="22" rx="3" fill="#334155"/>
  <polygon points="492,180 508,180 500,190" fill="#475569"/>

  <!-- ============================================= -->
  <!-- LAYER 1 — LEXER -->
  <!-- ============================================= -->
  <rect x="40" y="196" width="920" height="130" rx="14" fill="#1a1520" stroke="#a78bfa" stroke-width="1.5" filter="url(#shadow)"/>
  <!-- Badge -->
  <rect x="56" y="206" width="90" height="22" rx="6" fill="#8b5cf6"/>
  <text x="101" y="222" text-anchor="middle" fill="#fff" font-size="11" font-weight="700">1 · LEXER</text>
  <text x="158" y="222" fill="#a5b4fc" font-size="12" font-weight="500">Splits text into typed tokens</text>

  <!-- Token boxes row 1 -->
  <rect x="60"  y="240" width="56" height="26" rx="6" fill="#f9731620" stroke="#f97316" stroke-width="1"/>
  <text x="88"  y="258" text-anchor="middle" fill="#fdba74" font-size="10" font-weight="600">KEYWORD</text>
  <rect x="124" y="240" width="36" height="26" rx="6" fill="#f97316" opacity="0.85"/>
  <text x="142" y="258" text-anchor="middle" fill="#fff" font-size="10" font-family="'Cascadia Code', monospace" font-weight="600">join</text>

  <rect x="172" y="240" width="42" height="26" rx="6" fill="#06b6d420" stroke="#06b6d4" stroke-width="1"/>
  <text x="193" y="258" text-anchor="middle" fill="#67e8f9" font-size="10" font-weight="600">IDENT</text>
  <rect x="222" y="240" width="38" height="26" rx="6" fill="#06b6d4" opacity="0.85"/>
  <text x="241" y="258" text-anchor="middle" fill="#fff" font-size="10" font-family="'Cascadia Code', monospace" font-weight="600">Role</text>

  <rect x="272" y="240" width="42" height="26" rx="6" fill="#06b6d420" stroke="#06b6d4" stroke-width="1"/>
  <text x="293" y="258" text-anchor="middle" fill="#67e8f9" font-size="10" font-weight="600">IDENT</text>
  <rect x="322" y="240" width="22" height="26" rx="6" fill="#06b6d4" opacity="0.85"/>
  <text x="333" y="258" text-anchor="middle" fill="#fff" font-size="10" font-family="'Cascadia Code', monospace" font-weight="600">r</text>

  <rect x="356" y="240" width="56" height="26" rx="6" fill="#f9731620" stroke="#f97316" stroke-width="1"/>
  <text x="384" y="258" text-anchor="middle" fill="#fdba74" font-size="10" font-weight="600">KEYWORD</text>
  <rect x="420" y="240" width="50" height="26" rx="6" fill="#f97316" opacity="0.85"/>
  <text x="445" y="258" text-anchor="middle" fill="#fff" font-size="10" font-family="'Cascadia Code', monospace" font-weight="600">select</text>

  <rect x="482" y="240" width="42" height="26" rx="6" fill="#06b6d420" stroke="#06b6d4" stroke-width="1"/>
  <text x="503" y="258" text-anchor="middle" fill="#67e8f9" font-size="10" font-weight="600">IDENT</text>
  <rect x="532" y="240" width="22" height="26" rx="6" fill="#06b6d4" opacity="0.85"/>
  <text x="543" y="258" text-anchor="middle" fill="#fff" font-size="10" font-family="'Cascadia Code', monospace" font-weight="600">Id</text>

  <rect x="566" y="240" width="50" height="26" rx="6" fill="#ec489920" stroke="#ec4899" stroke-width="1"/>
  <text x="591" y="258" text-anchor="middle" fill="#f9a8d4" font-size="10" font-weight="600">SYMBOL</text>
  <rect x="624" y="240" width="16" height="26" rx="6" fill="#ec4899" opacity="0.85"/>
  <text x="632" y="258" text-anchor="middle" fill="#fff" font-size="11" font-family="'Cascadia Code', monospace" font-weight="700">,</text>

  <rect x="652" y="240" width="42" height="26" rx="6" fill="#06b6d420" stroke="#06b6d4" stroke-width="1"/>
  <text x="673" y="258" text-anchor="middle" fill="#67e8f9" font-size="10" font-weight="600">IDENT</text>
  <rect x="702" y="240" width="90" height="26" rx="6" fill="#06b6d4" opacity="0.85"/>
  <text x="747" y="258" text-anchor="middle" fill="#fff" font-size="10" font-family="'Cascadia Code', monospace" font-weight="600">r.DisplayName</text>

  <!-- Token boxes row 2 -->
  <rect x="60"  y="278" width="56" height="26" rx="6" fill="#f9731620" stroke="#f97316" stroke-width="1"/>
  <text x="88"  y="296" text-anchor="middle" fill="#fdba74" font-size="10" font-weight="600">KEYWORD</text>
  <rect x="124" y="278" width="44" height="26" rx="6" fill="#f97316" opacity="0.85"/>
  <text x="146" y="296" text-anchor="middle" fill="#fff" font-size="10" font-family="'Cascadia Code', monospace" font-weight="600">where</text>

  <rect x="180" y="278" width="50" height="26" rx="6" fill="#ec489920" stroke="#ec4899" stroke-width="1"/>
  <text x="205" y="296" text-anchor="middle" fill="#f9a8d4" font-size="10" font-weight="600">SYMBOL</text>
  <rect x="238" y="278" width="16" height="26" rx="6" fill="#ec4899" opacity="0.85"/>
  <text x="246" y="296" text-anchor="middle" fill="#fff" font-size="12" font-family="'Cascadia Code', monospace" font-weight="700">(</text>

  <rect x="266" y="278" width="42" height="26" rx="6" fill="#06b6d420" stroke="#06b6d4" stroke-width="1"/>
  <text x="287" y="296" text-anchor="middle" fill="#67e8f9" font-size="10" font-weight="600">IDENT</text>
  <rect x="316" y="278" width="75" height="26" rx="6" fill="#06b6d4" opacity="0.85"/>
  <text x="353" y="296" text-anchor="middle" fill="#fff" font-size="10" font-family="'Cascadia Code', monospace" font-weight="600">OwnerType</text>

  <rect x="403" y="278" width="33" height="26" rx="6" fill="#fbbf2420" stroke="#fbbf24" stroke-width="1"/>
  <text x="420" y="296" text-anchor="middle" fill="#fde68a" font-size="10" font-weight="600">OP</text>
  <rect x="444" y="278" width="16" height="26" rx="6" fill="#eab308" opacity="0.85"/>
  <text x="452" y="296" text-anchor="middle" fill="#fff" font-size="12" font-family="'Cascadia Code', monospace" font-weight="700">=</text>

  <rect x="472" y="278" width="42" height="26" rx="6" fill="#10b98120" stroke="#10b981" stroke-width="1"/>
  <text x="493" y="296" text-anchor="middle" fill="#6ee7b7" font-size="10" font-weight="600">VALUE</text>
  <rect x="522" y="278" width="38" height="26" rx="6" fill="#10b981" opacity="0.85"/>
  <text x="541" y="296" text-anchor="middle" fill="#fff" font-size="10" font-family="'Cascadia Code', monospace" font-weight="600">2015</text>

  <rect x="572" y="278" width="50" height="26" rx="6" fill="#ec489920" stroke="#ec4899" stroke-width="1"/>
  <text x="597" y="296" text-anchor="middle" fill="#f9a8d4" font-size="10" font-weight="600">SYMBOL</text>
  <rect x="630" y="278" width="16" height="26" rx="6" fill="#ec4899" opacity="0.85"/>
  <text x="638" y="296" text-anchor="middle" fill="#fff" font-size="12" font-family="'Cascadia Code', monospace" font-weight="700">)</text>

  <rect x="660" y="278" width="56" height="26" rx="6" fill="#f9731620" stroke="#f97316" stroke-width="1"/>
  <text x="688" y="296" text-anchor="middle" fill="#fdba74" font-size="10" font-weight="600">KEYWORD</text>
  <rect x="724" y="278" width="56" height="26" rx="6" fill="#f97316" opacity="0.85"/>
  <text x="752" y="296" text-anchor="middle" fill="#fff" font-size="10" font-family="'Cascadia Code', monospace" font-weight="600">order by</text>

  <rect x="790" y="278" width="42" height="26" rx="6" fill="#06b6d420" stroke="#06b6d4" stroke-width="1"/>
  <text x="811" y="296" text-anchor="middle" fill="#67e8f9" font-size="10" font-weight="600">IDENT</text>
  <rect x="840" y="278" width="22" height="26" rx="6" fill="#06b6d4" opacity="0.85"/>
  <text x="851" y="296" text-anchor="middle" fill="#fff" font-size="10" font-family="'Cascadia Code', monospace" font-weight="600">Id</text>

  <rect x="874" y="278" width="42" height="26" rx="6" fill="#06b6d420" stroke="#06b6d4" stroke-width="1"/>
  <text x="895" y="296" text-anchor="middle" fill="#67e8f9" font-size="10" font-weight="600">IDENT</text>
  <rect x="924" y="278" width="28" height="26" rx="6" fill="#06b6d4" opacity="0.85"/>
  <text x="938" y="296" text-anchor="middle" fill="#fff" font-size="10" font-family="'Cascadia Code', monospace" font-weight="600">desc</text>

  <!-- Arrow -->
  <rect x="492" y="328" width="16" height="22" rx="3" fill="#334155"/>
  <polygon points="492,346 508,346 500,356" fill="#475569"/>

  <!-- ============================================= -->
  <!-- LAYER 2 — PARSER -->
  <!-- ============================================= -->
  <rect x="40" y="362" width="920" height="168" rx="14" fill="#0f1923" stroke="#06b6d4" stroke-width="1.5" filter="url(#shadow)"/>
  <!-- Badge -->
  <rect x="56" y="372" width="100" height="22" rx="6" fill="#0891b2"/>
  <text x="106" y="388" text-anchor="middle" fill="#fff" font-size="11" font-weight="700">2 · PARSER</text>
  <text x="168" y="388" fill="#67e8f9" font-size="12" font-weight="500">Groups tokens into a structured tree (AST)</text>

  <!-- AST blocks -->
  <!-- Joins block -->
  <rect x="60" y="404" width="200" height="56" rx="10" fill="#06b6d415" stroke="#06b6d4" stroke-width="1"/>
  <text x="78" y="422" fill="#67e8f9" font-size="10" font-weight="700">JOINS</text>
  <text x="78" y="440" fill="#a5f3fc" font-size="10" font-family="'Cascadia Code', monospace">Role → alias "r"</text>
  <text x="78" y="454" fill="#a5f3fc" font-size="10" font-family="'Cascadia Code', monospace">r.Policy → alias "rp"</text>

  <!-- Select block -->
  <rect x="275" y="404" width="210" height="56" rx="10" fill="#a78bfa15" stroke="#a78bfa" stroke-width="1"/>
  <text x="293" y="422" fill="#c4b5fd" font-size="10" font-weight="700">SELECT</text>
  <text x="293" y="440" fill="#ddd6fe" font-size="10" font-family="'Cascadia Code', monospace">[ Id, r.DisplayName ]</text>

  <!-- Where block -->
  <rect x="500" y="404" width="220" height="56" rx="10" fill="#f43f5e15" stroke="#f43f5e" stroke-width="1"/>
  <text x="518" y="422" fill="#fda4af" font-size="10" font-weight="700">WHERE</text>
  <text x="518" y="440" fill="#fecdd3" font-size="10" font-family="'Cascadia Code', monospace">compare(OwnerType = 2015)</text>

  <!-- OrderBy block -->
  <rect x="735" y="404" width="150" height="56" rx="10" fill="#38bdf815" stroke="#38bdf8" stroke-width="1"/>
  <text x="753" y="422" fill="#7dd3fc" font-size="10" font-weight="700">ORDER BY</text>
  <text x="753" y="440" fill="#bae6fd" font-size="10" font-family="'Cascadia Code', monospace">Id DESC</text>

  <!-- Root entity box -->
  <rect x="60" y="472" width="825" height="28" rx="8" fill="#10b98118" stroke="#10b981" stroke-width="1" stroke-dasharray="4,3"/>
  <text x="78" y="491" fill="#6ee7b7" font-size="10" font-weight="600">ROOT ENTITY</text>
  <text x="190" y="491" fill="#a7f3d0" font-size="10" font-family="'Cascadia Code', monospace">AssignedSingleRole   (from QueryRootEntityType= or URL path)</text>

  <!-- Top box -->
  <rect x="60" y="508" width="120" height="14" rx="4" fill="#fbbf2418"/>
  <text x="78" y="519" fill="#fde68a" font-size="9">TOP: none specified</text>

  <!-- Arrow -->
  <rect x="492" y="532" width="16" height="22" rx="3" fill="#334155"/>
  <polygon points="492,550 508,550 500,560" fill="#475569"/>

  <!-- ============================================= -->
  <!-- LAYER 3 — VALIDATOR -->
  <!-- ============================================= -->
  <rect x="40" y="566" width="920" height="110" rx="14" fill="#1a0f18" stroke="#f43f5e" stroke-width="1.5" filter="url(#shadow)"/>
  <!-- Badge -->
  <rect x="56" y="576" width="120" height="22" rx="6" fill="#e11d48"/>
  <text x="116" y="592" text-anchor="middle" fill="#fff" font-size="11" font-weight="700">3 · VALIDATOR</text>
  <text x="188" y="592" fill="#fda4af" font-size="12" font-weight="500">Checks the AST against config files</text>

  <!-- Check items -->
  <rect x="60" y="608" width="260" height="30" rx="8" fill="#10b98115" stroke="#10b981" stroke-width="1"/>
  <text x="78" y="628" fill="#6ee7b7" font-size="11">✓  AssignedSingleRole → table exists</text>

  <rect x="332" y="608" width="260" height="30" rx="8" fill="#10b98115" stroke="#10b981" stroke-width="1"/>
  <text x="350" y="628" fill="#6ee7b7" font-size="11">✓  Role nav prop is defined</text>

  <rect x="604" y="608" width="260" height="30" rx="8" fill="#10b98115" stroke="#10b981" stroke-width="1"/>
  <text x="622" y="628" fill="#6ee7b7" font-size="11">✓  All fields and aliases valid</text>

  <!-- Warning example -->
  <rect x="60" y="646" width="520" height="22" rx="6" fill="#eab30815" stroke="#eab308" stroke-width="1" stroke-dasharray="3,3"/>
  <text x="78" y="661" fill="#fde68a" font-size="10">⚠  Unknown field → warning with fix hint  |  ✕  Undeclared alias → error, abort</text>

  <!-- Arrow -->
  <rect x="492" y="678" width="16" height="22" rx="3" fill="#334155"/>
  <polygon points="492,696 508,696 500,706" fill="#475569"/>

  <!-- ============================================= -->
  <!-- LAYER 4 — TRANSFORMER -->
  <!-- ============================================= -->
  <rect x="40" y="712" width="920" height="155" rx="14" fill="#0a1a14" stroke="#10b981" stroke-width="1.5" filter="url(#shadow)"/>
  <!-- Badge -->
  <rect x="56" y="722" width="140" height="22" rx="6" fill="#059669"/>
  <text x="126" y="738" text-anchor="middle" fill="#fff" font-size="11" font-weight="700">4 · TRANSFORMER</text>
  <text x="208" y="738" fill="#6ee7b7" font-size="12" font-weight="500">Resolves SQuery names to SQL names</text>

  <!-- Mapping arrows -->
  <!-- FROM -->
  <rect x="60" y="754" width="170" height="26" rx="7" fill="#06b6d420" stroke="#06b6d4" stroke-width="1"/>
  <text x="145" y="772" text-anchor="middle" fill="#a5f3fc" font-size="10" font-family="'Cascadia Code', monospace">AssignedSingleRole</text>
  <text x="245" y="772" fill="#475569" font-size="14" font-weight="700">→</text>
  <rect x="262" y="754" width="260" height="26" rx="7" fill="#10b98120" stroke="#10b981" stroke-width="1"/>
  <text x="392" y="772" text-anchor="middle" fill="#a7f3d0" font-size="10" font-family="'Cascadia Code', monospace">FROM [dbo].[UP_AssignedSingleRoles] asr</text>

  <!-- JOIN -->
  <rect x="60" y="788" width="170" height="26" rx="7" fill="#06b6d420" stroke="#06b6d4" stroke-width="1"/>
  <text x="145" y="806" text-anchor="middle" fill="#a5f3fc" font-size="10" font-family="'Cascadia Code', monospace">join Role r</text>
  <text x="245" y="806" fill="#475569" font-size="14" font-weight="700">→</text>
  <rect x="262" y="788" width="430" height="26" rx="7" fill="#10b98120" stroke="#10b981" stroke-width="1"/>
  <text x="477" y="806" text-anchor="middle" fill="#a7f3d0" font-size="10" font-family="'Cascadia Code', monospace">LEFT JOIN [dbo].[UP_SingleRoles] r ON asr.Role_Id = r.Id</text>

  <!-- Column rename -->
  <rect x="60" y="822" width="170" height="26" rx="7" fill="#06b6d420" stroke="#06b6d4" stroke-width="1"/>
  <text x="145" y="840" text-anchor="middle" fill="#a5f3fc" font-size="10" font-family="'Cascadia Code', monospace">r.DisplayName</text>
  <text x="245" y="840" fill="#475569" font-size="14" font-weight="700">→</text>
  <rect x="262" y="822" width="160" height="26" rx="7" fill="#10b98120" stroke="#10b981" stroke-width="1"/>
  <text x="342" y="840" text-anchor="middle" fill="#a7f3d0" font-size="10" font-family="'Cascadia Code', monospace">r.DisplayName_L1</text>

  <!-- System filter injected -->
  <rect x="540" y="822" width="340" height="26" rx="7" fill="#eab30818" stroke="#eab308" stroke-width="1" stroke-dasharray="3,3"/>
  <text x="558" y="840" fill="#fde68a" font-size="10">+ injected: ValidTo > CURRENT_TIMESTAMP, Type = N</text>

  <!-- Arrow -->
  <rect x="492" y="869" width="16" height="22" rx="3" fill="#334155"/>
  <polygon points="492,887 508,887 500,897" fill="#475569"/>

  <!-- ============================================= -->
  <!-- LAYER 5 — SQL BUILDER -->
  <!-- ============================================= -->
  <rect x="40" y="903" width="920" height="80" rx="14" fill="#0d1424" stroke="#3b82f6" stroke-width="1.5" filter="url(#shadow)"/>
  <!-- Badge -->
  <rect x="56" y="913" width="138" height="22" rx="6" fill="#2563eb"/>
  <text x="125" y="929" text-anchor="middle" fill="#fff" font-size="11" font-weight="700">5 · SQL BUILDER</text>
  <text x="206" y="929" fill="#93c5fd" font-size="12" font-weight="500">Assembles all parts into the final query</text>

  <!-- Assembly blocks -->
  <rect x="60"  y="945" width="70"  height="24" rx="6" fill="#3b82f6" opacity="0.8"/>
  <text x="95"  y="962" text-anchor="middle" fill="#fff" font-size="10" font-weight="600">SELECT</text>
  <text x="139" y="962" fill="#475569" font-size="12">+</text>
  <rect x="148" y="945" width="58" height="24" rx="6" fill="#3b82f6" opacity="0.8"/>
  <text x="177" y="962" text-anchor="middle" fill="#fff" font-size="10" font-weight="600">FROM</text>
  <text x="215" y="962" fill="#475569" font-size="12">+</text>
  <rect x="224" y="945" width="100" height="24" rx="6" fill="#3b82f6" opacity="0.8"/>
  <text x="274" y="962" text-anchor="middle" fill="#fff" font-size="10" font-weight="600">LEFT JOINs</text>
  <text x="333" y="962" fill="#475569" font-size="12">+</text>
  <rect x="342" y="945" width="68" height="24" rx="6" fill="#3b82f6" opacity="0.8"/>
  <text x="376" y="962" text-anchor="middle" fill="#fff" font-size="10" font-weight="600">WHERE</text>
  <text x="419" y="962" fill="#475569" font-size="12">+</text>
  <rect x="428" y="945" width="90" height="24" rx="6" fill="#3b82f6" opacity="0.8"/>
  <text x="473" y="962" text-anchor="middle" fill="#fff" font-size="10" font-weight="600">ORDER BY</text>
  <text x="533" y="962" fill="#475569" font-size="14">→</text>
  <rect x="548" y="945" width="70" height="24" rx="6" fill="#10b981" opacity="0.9"/>
  <text x="583" y="962" text-anchor="middle" fill="#fff" font-size="10" font-weight="700">final SQL</text>

  <!-- Arrow -->
  <rect x="492" y="985" width="16" height="22" rx="3" fill="#334155"/>
  <polygon points="492,1003 508,1003 500,1013" fill="#475569"/>

  <!-- ============================================= -->
  <!-- LAYER 6 — OUTPUT -->
  <!-- ============================================= -->
  <rect x="40" y="1019" width="920" height="130" rx="14" fill="#0a1a14" stroke="#10b981" stroke-width="2" filter="url(#shadow)"/>
  <!-- Badge -->
  <rect x="56" y="1029" width="78" height="22" rx="6" fill="#10b981"/>
  <text x="95" y="1045" text-anchor="middle" fill="#fff" font-size="11" font-weight="700">OUTPUT</text>
  <text x="146" y="1045" fill="#6ee7b7" font-size="12" font-weight="500">Parameterized SQL ready to execute</text>

  <!-- SQL output -->
  <text x="68" y="1072" fill="#d1fae5" font-size="12" font-family="'Cascadia Code', 'Fira Code', monospace"><tspan fill="#3b82f6" font-weight="600">SELECT</tspan> asr.Id, r.DisplayName_L1</text>
  <text x="68" y="1092" fill="#d1fae5" font-size="12" font-family="'Cascadia Code', 'Fira Code', monospace"><tspan fill="#3b82f6" font-weight="600">FROM</tspan> [dbo].[UP_AssignedSingleRoles] asr</text>
  <text x="68" y="1112" fill="#d1fae5" font-size="12" font-family="'Cascadia Code', 'Fira Code', monospace"><tspan fill="#3b82f6" font-weight="600">LEFT JOIN</tspan> [dbo].[UP_SingleRoles] r <tspan fill="#64748b">ON</tspan> asr.Role_Id = r.Id</text>
  <text x="68" y="1132" fill="#d1fae5" font-size="12" font-family="'Cascadia Code', 'Fira Code', monospace"><tspan fill="#3b82f6" font-weight="600">WHERE</tspan> asr.ValidTo > CURRENT_TIMESTAMP <tspan fill="#64748b">AND</tspan> (asr.OwnerType = 2015) <tspan fill="#3b82f6" font-weight="600">ORDER BY</tspan> asr.Id DESC</text>

  <!-- ============================================= -->
  <!-- CONFIG floating panel (right side) -->
  <!-- ============================================= -->
  <rect x="796" y="580" width="155" height="82" rx="10" fill="#1e293b" stroke="#475569" stroke-width="1" filter="url(#shadow)" opacity="0.9"/>
  <text x="873" y="597" text-anchor="middle" fill="#94a3b8" font-size="10" font-weight="700">⚙ CONFIG FILES</text>
  <text x="810" y="614" fill="#64748b" font-size="9">squery-schema.json</text>
  <text x="810" y="628" fill="#64748b" font-size="9">sql-schema.json</text>
  <text x="810" y="642" fill="#64748b" font-size="9">correlation.json</text>
  <text x="810" y="656" fill="#f97316" font-size="9">resource-columns.json</text>

  <!-- Dotted line from config to validator / transformer -->
  <line x1="796" y1="620" x2="775" y2="625" stroke="#33415580" stroke-width="1" stroke-dasharray="3,3"/>
  <line x1="810" y1="662" x2="810" y2="730" stroke="#33415580" stroke-width="1" stroke-dasharray="3,3"/>

  <!-- ============================================= -->
  <!-- Footer -->
  <!-- ============================================= -->
  <text x="500" y="1180" text-anchor="middle" fill="#334155" font-size="10">SQuery-SQL-Translator · github.com/Ariovis</text>
</svg>